<mxfile host="app.diagrams.net" agent="Mozilla/5.0 (Macintosh; Intel Mac OS X 10_15_7) AppleWebKit/605.1.15 (KHTML, like Gecko) Version/17.6 Safari/605.1.15" version="24.8.6">
  <diagram name="Page-1" id="rsrH93Blr88NDStMqpAt">
    <mxGraphModel dx="995" dy="664" grid="1" gridSize="10" guides="1" tooltips="1" connect="1" arrows="1" fold="1" page="1" pageScale="1" pageWidth="827" pageHeight="1169" math="0" shadow="0">
      <root>
        <mxCell id="0" />
        <mxCell id="1" parent="0" />
        <mxCell id="pYEbAgZ4Cut-oeOIJQDL-10" style="edgeStyle=orthogonalEdgeStyle;rounded=0;orthogonalLoop=1;jettySize=auto;html=1;exitX=1;exitY=0.75;exitDx=0;exitDy=0;entryX=0;entryY=0.5;entryDx=0;entryDy=0;endArrow=none;endFill=0;" edge="1" parent="1" source="6_lGNWQoFqUdsrkoPATE-1" target="pYEbAgZ4Cut-oeOIJQDL-8">
          <mxGeometry relative="1" as="geometry" />
        </mxCell>
        <mxCell id="6_lGNWQoFqUdsrkoPATE-1" value="camiseta" style="whiteSpace=wrap;html=1;align=center;" parent="1" vertex="1">
          <mxGeometry x="364" y="380" width="100" height="40" as="geometry" />
        </mxCell>
        <mxCell id="pYEbAgZ4Cut-oeOIJQDL-11" style="edgeStyle=orthogonalEdgeStyle;rounded=0;orthogonalLoop=1;jettySize=auto;html=1;exitX=1;exitY=0.5;exitDx=0;exitDy=0;entryX=0.25;entryY=0;entryDx=0;entryDy=0;endArrow=none;endFill=0;" edge="1" parent="1" source="pYEbAgZ4Cut-oeOIJQDL-8" target="pYEbAgZ4Cut-oeOIJQDL-9">
          <mxGeometry relative="1" as="geometry">
            <Array as="points">
              <mxPoint x="775" y="515" />
            </Array>
          </mxGeometry>
        </mxCell>
        <mxCell id="pYEbAgZ4Cut-oeOIJQDL-8" value="contiene" style="shape=rhombus;perimeter=rhombusPerimeter;whiteSpace=wrap;html=1;align=center;" vertex="1" parent="1">
          <mxGeometry x="570" y="490" width="80" height="50" as="geometry" />
        </mxCell>
        <mxCell id="pYEbAgZ4Cut-oeOIJQDL-17" style="edgeStyle=orthogonalEdgeStyle;shape=connector;rounded=0;orthogonalLoop=1;jettySize=auto;html=1;exitX=0;exitY=0.5;exitDx=0;exitDy=0;entryX=1;entryY=0.5;entryDx=0;entryDy=0;strokeColor=default;align=center;verticalAlign=middle;fontFamily=Helvetica;fontSize=11;fontColor=default;labelBackgroundColor=default;endArrow=none;endFill=0;" edge="1" parent="1" source="pYEbAgZ4Cut-oeOIJQDL-9" target="pYEbAgZ4Cut-oeOIJQDL-16">
          <mxGeometry relative="1" as="geometry" />
        </mxCell>
        <mxCell id="pYEbAgZ4Cut-oeOIJQDL-24" style="edgeStyle=orthogonalEdgeStyle;shape=connector;rounded=0;orthogonalLoop=1;jettySize=auto;html=1;exitX=0.75;exitY=0;exitDx=0;exitDy=0;entryX=0.5;entryY=1;entryDx=0;entryDy=0;strokeColor=default;align=center;verticalAlign=middle;fontFamily=Helvetica;fontSize=11;fontColor=default;labelBackgroundColor=default;endArrow=none;endFill=0;" edge="1" parent="1" source="pYEbAgZ4Cut-oeOIJQDL-9" target="pYEbAgZ4Cut-oeOIJQDL-23">
          <mxGeometry relative="1" as="geometry">
            <mxPoint x="790" y="580" as="sourcePoint" />
          </mxGeometry>
        </mxCell>
        <mxCell id="pYEbAgZ4Cut-oeOIJQDL-9" value="pedido&lt;div&gt;cliente&lt;/div&gt;" style="whiteSpace=wrap;html=1;align=center;" vertex="1" parent="1">
          <mxGeometry x="750" y="605" width="100" height="40" as="geometry" />
        </mxCell>
        <mxCell id="pYEbAgZ4Cut-oeOIJQDL-15" style="edgeStyle=orthogonalEdgeStyle;shape=connector;rounded=0;orthogonalLoop=1;jettySize=auto;html=1;exitX=0.5;exitY=1;exitDx=0;exitDy=0;entryX=0.5;entryY=0;entryDx=0;entryDy=0;strokeColor=default;align=center;verticalAlign=middle;fontFamily=Helvetica;fontSize=11;fontColor=default;labelBackgroundColor=default;endArrow=none;endFill=0;" edge="1" parent="1" source="pYEbAgZ4Cut-oeOIJQDL-12" target="pYEbAgZ4Cut-oeOIJQDL-14">
          <mxGeometry relative="1" as="geometry" />
        </mxCell>
        <mxCell id="pYEbAgZ4Cut-oeOIJQDL-31" style="edgeStyle=orthogonalEdgeStyle;shape=connector;rounded=0;orthogonalLoop=1;jettySize=auto;html=1;exitX=0.5;exitY=0;exitDx=0;exitDy=0;entryX=0.5;entryY=1;entryDx=0;entryDy=0;strokeColor=default;align=center;verticalAlign=middle;fontFamily=Helvetica;fontSize=11;fontColor=default;labelBackgroundColor=default;endArrow=none;endFill=0;" edge="1" parent="1" source="pYEbAgZ4Cut-oeOIJQDL-12" target="6_lGNWQoFqUdsrkoPATE-1">
          <mxGeometry relative="1" as="geometry" />
        </mxCell>
        <mxCell id="pYEbAgZ4Cut-oeOIJQDL-12" value="contiene" style="shape=rhombus;perimeter=rhombusPerimeter;whiteSpace=wrap;html=1;align=center;" vertex="1" parent="1">
          <mxGeometry x="374" y="490" width="80" height="50" as="geometry" />
        </mxCell>
        <mxCell id="pYEbAgZ4Cut-oeOIJQDL-18" style="edgeStyle=orthogonalEdgeStyle;shape=connector;rounded=0;orthogonalLoop=1;jettySize=auto;html=1;exitX=1;exitY=0.5;exitDx=0;exitDy=0;entryX=0;entryY=0.5;entryDx=0;entryDy=0;strokeColor=default;align=center;verticalAlign=middle;fontFamily=Helvetica;fontSize=11;fontColor=default;labelBackgroundColor=default;endArrow=none;endFill=0;" edge="1" parent="1" source="pYEbAgZ4Cut-oeOIJQDL-14" target="pYEbAgZ4Cut-oeOIJQDL-16">
          <mxGeometry relative="1" as="geometry" />
        </mxCell>
        <mxCell id="pYEbAgZ4Cut-oeOIJQDL-22" style="edgeStyle=orthogonalEdgeStyle;shape=connector;rounded=0;orthogonalLoop=1;jettySize=auto;html=1;exitX=0.5;exitY=1;exitDx=0;exitDy=0;entryX=0.5;entryY=0;entryDx=0;entryDy=0;strokeColor=default;align=center;verticalAlign=middle;fontFamily=Helvetica;fontSize=11;fontColor=default;labelBackgroundColor=default;endArrow=none;endFill=0;" edge="1" parent="1" source="pYEbAgZ4Cut-oeOIJQDL-14" target="pYEbAgZ4Cut-oeOIJQDL-21">
          <mxGeometry relative="1" as="geometry" />
        </mxCell>
        <mxCell id="pYEbAgZ4Cut-oeOIJQDL-14" value="pedido&lt;div&gt;distribuidor&lt;/div&gt;" style="whiteSpace=wrap;html=1;align=center;" vertex="1" parent="1">
          <mxGeometry x="364" y="605" width="100" height="40" as="geometry" />
        </mxCell>
        <mxCell id="pYEbAgZ4Cut-oeOIJQDL-20" style="edgeStyle=orthogonalEdgeStyle;shape=connector;rounded=0;orthogonalLoop=1;jettySize=auto;html=1;exitX=0.5;exitY=1;exitDx=0;exitDy=0;entryX=0.5;entryY=0;entryDx=0;entryDy=0;strokeColor=default;align=center;verticalAlign=middle;fontFamily=Helvetica;fontSize=11;fontColor=default;labelBackgroundColor=default;endArrow=none;endFill=0;" edge="1" parent="1" source="pYEbAgZ4Cut-oeOIJQDL-16" target="pYEbAgZ4Cut-oeOIJQDL-19">
          <mxGeometry relative="1" as="geometry" />
        </mxCell>
        <mxCell id="pYEbAgZ4Cut-oeOIJQDL-16" value="gestiona" style="shape=rhombus;perimeter=rhombusPerimeter;whiteSpace=wrap;html=1;align=center;fillColor=#f8cecc;strokeColor=#b85450;" vertex="1" parent="1">
          <mxGeometry x="570" y="600" width="80" height="50" as="geometry" />
        </mxCell>
        <mxCell id="pYEbAgZ4Cut-oeOIJQDL-19" value="encargado" style="whiteSpace=wrap;html=1;align=center;fillColor=#f8cecc;strokeColor=#b85450;" vertex="1" parent="1">
          <mxGeometry x="560" y="700" width="100" height="40" as="geometry" />
        </mxCell>
        <mxCell id="pYEbAgZ4Cut-oeOIJQDL-21" value="distribuidor" style="whiteSpace=wrap;html=1;align=center;" vertex="1" parent="1">
          <mxGeometry x="364" y="700" width="100" height="40" as="geometry" />
        </mxCell>
        <mxCell id="pYEbAgZ4Cut-oeOIJQDL-26" style="edgeStyle=orthogonalEdgeStyle;shape=connector;rounded=0;orthogonalLoop=1;jettySize=auto;html=1;exitX=0.5;exitY=0;exitDx=0;exitDy=0;entryX=0.5;entryY=1;entryDx=0;entryDy=0;strokeColor=default;align=center;verticalAlign=middle;fontFamily=Helvetica;fontSize=11;fontColor=default;labelBackgroundColor=default;endArrow=none;endFill=0;" edge="1" parent="1" source="pYEbAgZ4Cut-oeOIJQDL-23" target="pYEbAgZ4Cut-oeOIJQDL-25">
          <mxGeometry relative="1" as="geometry" />
        </mxCell>
        <mxCell id="pYEbAgZ4Cut-oeOIJQDL-23" value="realiza" style="shape=rhombus;perimeter=rhombusPerimeter;whiteSpace=wrap;html=1;align=center;" vertex="1" parent="1">
          <mxGeometry x="784" y="480" width="80" height="50" as="geometry" />
        </mxCell>
        <mxCell id="pYEbAgZ4Cut-oeOIJQDL-28" style="edgeStyle=orthogonalEdgeStyle;shape=connector;rounded=0;orthogonalLoop=1;jettySize=auto;html=1;exitX=0;exitY=0.5;exitDx=0;exitDy=0;entryX=1;entryY=0.5;entryDx=0;entryDy=0;strokeColor=default;align=center;verticalAlign=middle;fontFamily=Helvetica;fontSize=11;fontColor=default;labelBackgroundColor=default;endArrow=none;endFill=0;" edge="1" parent="1" source="pYEbAgZ4Cut-oeOIJQDL-25" target="pYEbAgZ4Cut-oeOIJQDL-27">
          <mxGeometry relative="1" as="geometry" />
        </mxCell>
        <mxCell id="pYEbAgZ4Cut-oeOIJQDL-30" style="edgeStyle=orthogonalEdgeStyle;shape=connector;rounded=0;orthogonalLoop=1;jettySize=auto;html=1;exitX=0.5;exitY=0;exitDx=0;exitDy=0;entryX=1;entryY=0.5;entryDx=0;entryDy=0;strokeColor=default;align=center;verticalAlign=middle;fontFamily=Helvetica;fontSize=11;fontColor=default;labelBackgroundColor=default;endArrow=none;endFill=0;" edge="1" parent="1" source="pYEbAgZ4Cut-oeOIJQDL-25" target="pYEbAgZ4Cut-oeOIJQDL-29">
          <mxGeometry relative="1" as="geometry">
            <mxPoint x="690" y="320" as="targetPoint" />
          </mxGeometry>
        </mxCell>
        <mxCell id="pYEbAgZ4Cut-oeOIJQDL-25" value="cliente" style="whiteSpace=wrap;html=1;align=center;" vertex="1" parent="1">
          <mxGeometry x="774" y="370" width="100" height="40" as="geometry" />
        </mxCell>
        <mxCell id="pYEbAgZ4Cut-oeOIJQDL-33" style="edgeStyle=orthogonalEdgeStyle;shape=connector;rounded=0;orthogonalLoop=1;jettySize=auto;html=1;exitX=0;exitY=0.5;exitDx=0;exitDy=0;entryX=1;entryY=0.25;entryDx=0;entryDy=0;strokeColor=default;align=center;verticalAlign=middle;fontFamily=Helvetica;fontSize=11;fontColor=default;labelBackgroundColor=default;endArrow=none;endFill=0;" edge="1" parent="1" source="pYEbAgZ4Cut-oeOIJQDL-27" target="6_lGNWQoFqUdsrkoPATE-1">
          <mxGeometry relative="1" as="geometry" />
        </mxCell>
        <mxCell id="pYEbAgZ4Cut-oeOIJQDL-27" value="compra" style="shape=rhombus;perimeter=rhombusPerimeter;whiteSpace=wrap;html=1;align=center;" vertex="1" parent="1">
          <mxGeometry x="570" y="365" width="80" height="50" as="geometry" />
        </mxCell>
        <mxCell id="pYEbAgZ4Cut-oeOIJQDL-35" style="edgeStyle=orthogonalEdgeStyle;shape=connector;rounded=0;orthogonalLoop=1;jettySize=auto;html=1;exitX=0.5;exitY=0;exitDx=0;exitDy=0;entryX=0.5;entryY=1;entryDx=0;entryDy=0;strokeColor=default;align=center;verticalAlign=middle;fontFamily=Helvetica;fontSize=11;fontColor=default;labelBackgroundColor=default;endArrow=none;endFill=0;" edge="1" parent="1" source="pYEbAgZ4Cut-oeOIJQDL-29" target="pYEbAgZ4Cut-oeOIJQDL-34">
          <mxGeometry relative="1" as="geometry" />
        </mxCell>
        <mxCell id="pYEbAgZ4Cut-oeOIJQDL-29" value="obtiene" style="shape=rhombus;perimeter=rhombusPerimeter;whiteSpace=wrap;html=1;align=center;" vertex="1" parent="1">
          <mxGeometry x="570" y="280" width="80" height="50" as="geometry" />
        </mxCell>
        <mxCell id="pYEbAgZ4Cut-oeOIJQDL-34" value="" style="whiteSpace=wrap;html=1;align=center;" vertex="1" parent="1">
          <mxGeometry x="560" y="190" width="100" height="40" as="geometry" />
        </mxCell>
        <mxCell id="pYEbAgZ4Cut-oeOIJQDL-43" value="" style="curved=1;endArrow=classic;html=1;rounded=0;strokeColor=default;align=center;verticalAlign=middle;fontFamily=Helvetica;fontSize=11;fontColor=default;labelBackgroundColor=default;edgeStyle=orthogonalEdgeStyle;" edge="1" parent="1">
          <mxGeometry width="50" height="50" relative="1" as="geometry">
            <mxPoint x="680" y="415" as="sourcePoint" />
            <mxPoint x="680" y="285" as="targetPoint" />
            <Array as="points">
              <mxPoint x="710" y="415" />
              <mxPoint x="710" y="285" />
            </Array>
          </mxGeometry>
        </mxCell>
        <mxCell id="pYEbAgZ4Cut-oeOIJQDL-44" value="(3,N)" style="edgeLabel;html=1;align=center;verticalAlign=middle;resizable=0;points=[];fontFamily=Helvetica;fontSize=11;fontColor=default;labelBackgroundColor=default;" vertex="1" connectable="0" parent="pYEbAgZ4Cut-oeOIJQDL-43">
          <mxGeometry x="-0.02" y="1" relative="1" as="geometry">
            <mxPoint as="offset" />
          </mxGeometry>
        </mxCell>
        <mxCell id="pYEbAgZ4Cut-oeOIJQDL-45" value="descuento" style="whiteSpace=wrap;html=1;align=center;" vertex="1" parent="1">
          <mxGeometry x="570" y="190" width="80" height="40" as="geometry" />
        </mxCell>
        <mxCell id="pYEbAgZ4Cut-oeOIJQDL-47" value="jugador" style="whiteSpace=wrap;html=1;align=center;" vertex="1" parent="1">
          <mxGeometry x="440" y="190" width="100" height="40" as="geometry" />
        </mxCell>
        <mxCell id="pYEbAgZ4Cut-oeOIJQDL-55" style="edgeStyle=orthogonalEdgeStyle;shape=connector;rounded=0;orthogonalLoop=1;jettySize=auto;html=1;exitX=0.5;exitY=0;exitDx=0;exitDy=0;entryX=1;entryY=0.5;entryDx=0;entryDy=0;strokeColor=default;align=center;verticalAlign=middle;fontFamily=Helvetica;fontSize=11;fontColor=default;labelBackgroundColor=default;endArrow=none;endFill=0;" edge="1" parent="1" source="pYEbAgZ4Cut-oeOIJQDL-48" target="pYEbAgZ4Cut-oeOIJQDL-54">
          <mxGeometry relative="1" as="geometry" />
        </mxCell>
        <mxCell id="pYEbAgZ4Cut-oeOIJQDL-58" style="edgeStyle=orthogonalEdgeStyle;shape=connector;rounded=0;orthogonalLoop=1;jettySize=auto;html=1;exitX=0;exitY=0.5;exitDx=0;exitDy=0;entryX=1;entryY=0.5;entryDx=0;entryDy=0;strokeColor=default;align=center;verticalAlign=middle;fontFamily=Helvetica;fontSize=11;fontColor=default;labelBackgroundColor=default;endArrow=none;endFill=0;" edge="1" parent="1" source="pYEbAgZ4Cut-oeOIJQDL-48" target="pYEbAgZ4Cut-oeOIJQDL-57">
          <mxGeometry relative="1" as="geometry" />
        </mxCell>
        <mxCell id="pYEbAgZ4Cut-oeOIJQDL-48" value="equipo" style="whiteSpace=wrap;html=1;align=center;" vertex="1" parent="1">
          <mxGeometry x="300" y="190" width="100" height="40" as="geometry" />
        </mxCell>
        <mxCell id="pYEbAgZ4Cut-oeOIJQDL-50" style="edgeStyle=orthogonalEdgeStyle;shape=connector;rounded=0;orthogonalLoop=1;jettySize=auto;html=1;exitX=1;exitY=0.5;exitDx=0;exitDy=0;entryX=0.5;entryY=1;entryDx=0;entryDy=0;strokeColor=default;align=center;verticalAlign=middle;fontFamily=Helvetica;fontSize=11;fontColor=default;labelBackgroundColor=default;endArrow=none;endFill=0;" edge="1" parent="1" source="pYEbAgZ4Cut-oeOIJQDL-49" target="pYEbAgZ4Cut-oeOIJQDL-47">
          <mxGeometry relative="1" as="geometry" />
        </mxCell>
        <mxCell id="pYEbAgZ4Cut-oeOIJQDL-51" style="edgeStyle=orthogonalEdgeStyle;shape=connector;rounded=0;orthogonalLoop=1;jettySize=auto;html=1;exitX=0;exitY=0.5;exitDx=0;exitDy=0;entryX=0.5;entryY=1;entryDx=0;entryDy=0;strokeColor=default;align=center;verticalAlign=middle;fontFamily=Helvetica;fontSize=11;fontColor=default;labelBackgroundColor=default;endArrow=none;endFill=0;" edge="1" parent="1" source="pYEbAgZ4Cut-oeOIJQDL-49" target="pYEbAgZ4Cut-oeOIJQDL-48">
          <mxGeometry relative="1" as="geometry" />
        </mxCell>
        <mxCell id="pYEbAgZ4Cut-oeOIJQDL-52" style="edgeStyle=orthogonalEdgeStyle;shape=connector;rounded=0;orthogonalLoop=1;jettySize=auto;html=1;exitX=0.5;exitY=1;exitDx=0;exitDy=0;entryX=0.5;entryY=0;entryDx=0;entryDy=0;strokeColor=default;align=center;verticalAlign=middle;fontFamily=Helvetica;fontSize=11;fontColor=default;labelBackgroundColor=default;endArrow=none;endFill=0;" edge="1" parent="1" source="pYEbAgZ4Cut-oeOIJQDL-49" target="6_lGNWQoFqUdsrkoPATE-1">
          <mxGeometry relative="1" as="geometry" />
        </mxCell>
        <mxCell id="pYEbAgZ4Cut-oeOIJQDL-49" value="asociado" style="shape=rhombus;perimeter=rhombusPerimeter;whiteSpace=wrap;html=1;align=center;" vertex="1" parent="1">
          <mxGeometry x="374" y="280" width="80" height="50" as="geometry" />
        </mxCell>
        <mxCell id="pYEbAgZ4Cut-oeOIJQDL-53" value="" style="whiteSpace=wrap;html=1;align=center;fillColor=#f8cecc;strokeColor=#b85450;" vertex="1" parent="1">
          <mxGeometry x="20" y="125" width="100" height="40" as="geometry" />
        </mxCell>
        <mxCell id="pYEbAgZ4Cut-oeOIJQDL-56" style="edgeStyle=orthogonalEdgeStyle;shape=connector;rounded=0;orthogonalLoop=1;jettySize=auto;html=1;exitX=0;exitY=0.5;exitDx=0;exitDy=0;entryX=1;entryY=0.5;entryDx=0;entryDy=0;strokeColor=default;align=center;verticalAlign=middle;fontFamily=Helvetica;fontSize=11;fontColor=default;labelBackgroundColor=default;endArrow=none;endFill=0;" edge="1" parent="1" source="pYEbAgZ4Cut-oeOIJQDL-54" target="pYEbAgZ4Cut-oeOIJQDL-53">
          <mxGeometry relative="1" as="geometry" />
        </mxCell>
        <mxCell id="pYEbAgZ4Cut-oeOIJQDL-54" value="asociado" style="shape=rhombus;perimeter=rhombusPerimeter;whiteSpace=wrap;html=1;align=center;" vertex="1" parent="1">
          <mxGeometry x="180" y="120" width="80" height="50" as="geometry" />
        </mxCell>
        <mxCell id="pYEbAgZ4Cut-oeOIJQDL-60" style="edgeStyle=orthogonalEdgeStyle;shape=connector;rounded=0;orthogonalLoop=1;jettySize=auto;html=1;exitX=0;exitY=0.5;exitDx=0;exitDy=0;entryX=1;entryY=0.5;entryDx=0;entryDy=0;strokeColor=default;align=center;verticalAlign=middle;fontFamily=Helvetica;fontSize=11;fontColor=default;labelBackgroundColor=default;endArrow=none;endFill=0;" edge="1" parent="1" source="pYEbAgZ4Cut-oeOIJQDL-57" target="pYEbAgZ4Cut-oeOIJQDL-59">
          <mxGeometry relative="1" as="geometry" />
        </mxCell>
        <mxCell id="pYEbAgZ4Cut-oeOIJQDL-57" value="asociado" style="shape=rhombus;perimeter=rhombusPerimeter;whiteSpace=wrap;html=1;align=center;" vertex="1" parent="1">
          <mxGeometry x="180" y="185" width="80" height="50" as="geometry" />
        </mxCell>
        <mxCell id="pYEbAgZ4Cut-oeOIJQDL-59" value="" style="whiteSpace=wrap;html=1;align=center;fillColor=#f8cecc;strokeColor=#b85450;" vertex="1" parent="1">
          <mxGeometry x="20" y="190" width="100" height="40" as="geometry" />
        </mxCell>
        <mxCell id="pYEbAgZ4Cut-oeOIJQDL-61" value="selección" style="whiteSpace=wrap;html=1;align=center;fillColor=#f8cecc;strokeColor=#b85450;" vertex="1" parent="1">
          <mxGeometry x="30" y="125" width="80" height="40" as="geometry" />
        </mxCell>
        <mxCell id="pYEbAgZ4Cut-oeOIJQDL-62" value="club" style="whiteSpace=wrap;html=1;align=center;fillColor=#f8cecc;strokeColor=#b85450;" vertex="1" parent="1">
          <mxGeometry x="30" y="190" width="80" height="40" as="geometry" />
        </mxCell>
        <mxCell id="pYEbAgZ4Cut-oeOIJQDL-63" value="IS_A??&lt;div&gt;ENTIDAD DEBIL??&lt;/div&gt;" style="text;html=1;align=center;verticalAlign=middle;whiteSpace=wrap;rounded=0;fontFamily=Helvetica;fontSize=11;fontColor=default;labelBackgroundColor=default;" vertex="1" parent="1">
          <mxGeometry x="20" y="80" width="100" height="30" as="geometry" />
        </mxCell>
      </root>
    </mxGraphModel>
  </diagram>
</mxfile>
